<svg width="123" height="44" viewBox="0 0 123 44" fill="none" xmlns="http://www.w3.org/2000/svg">
<path d="M33.9221 13.9562V13.1618L39.9626 7.47992H40.7102V11.106H48.3256V13.9572H40.7102V25.2996C40.7102 26.5629 41.0033 27.489 41.5885 28.079C42.1747 28.6699 43.0664 28.9654 44.2657 28.9654C45.1142 28.9654 46.151 28.7281 47.3762 28.2524L48.1238 30.9601C46.5882 31.6257 45.1411 31.958 43.7804 31.958C41.7739 31.958 40.2182 31.4213 39.1141 30.3488C38.0099 29.2764 37.4574 27.7699 37.4574 25.8276V13.9552H33.9221V13.9562Z" fill="white"/>
<path d="M80.121 31.6334H76.8884V11.105H80.0807L80.1614 14.363C80.7543 13.2625 81.5855 12.3906 82.656 11.7464C83.7265 11.1012 84.9488 10.7795 86.3219 10.7795C87.009 10.7795 87.6826 10.8735 88.3418 11.0644L87.8566 14.2817C87.1964 14.0908 86.5036 13.9968 85.7761 13.9968C84.1733 13.9968 82.8299 14.6149 81.746 15.8501C80.662 17.0853 80.1201 18.7894 80.1201 20.9614V31.6324L80.121 31.6334Z" fill="white"/>
<path d="M90.4021 21.2462C90.4021 18.2197 91.365 15.7174 93.2907 13.7421C95.2164 11.7667 97.6466 10.7795 100.583 10.7795C103.52 10.7795 105.848 11.6679 107.653 13.4466C109.471 15.2388 110.38 17.5474 110.38 20.3704C110.38 20.384 110.34 20.941 110.259 22.0406H93.7144C93.8893 24.3356 94.586 26.0765 95.8054 27.2642C97.0239 28.4529 98.6431 29.0468 100.664 29.0468C102.455 29.0468 103.916 28.6622 105.048 27.8959C106.179 27.1296 106.926 26.0668 107.291 24.7096H110.381C109.949 26.7207 108.738 28.9208 106.987 30.1366C105.236 31.3515 103.129 31.9589 100.665 31.9589C97.5668 31.9589 95.0828 30.9582 93.2109 28.9547C91.339 26.9523 90.4031 24.3831 90.4031 21.2462H90.4021ZM105.169 15.1778C103.944 14.1053 102.415 13.5686 100.583 13.5686C98.7517 13.5686 97.2027 14.1083 95.9371 15.1875C94.6715 16.2667 93.9576 17.6491 93.7961 19.3329H107.169C107.061 17.6356 106.394 16.2502 105.169 15.1778Z" fill="white"/>
<path d="M90.4021 21.2462C90.4021 18.2197 91.365 15.7174 93.2907 13.7421C95.2164 11.7667 97.6466 10.7795 100.583 10.7795C103.52 10.7795 105.848 11.6679 107.653 13.4466C109.471 15.2388 110.38 17.5474 110.38 20.3704C110.38 20.384 110.34 20.941 110.259 22.0406H93.7144C93.8893 24.3356 94.586 26.0765 95.8054 27.2642C97.0239 28.4529 98.6431 29.0468 100.664 29.0468C102.455 29.0468 103.916 28.6622 105.048 27.8959C106.179 27.1296 106.926 26.0668 107.291 24.7096H110.381C109.949 26.7207 108.738 28.9208 106.987 30.1366C105.236 31.3515 103.129 31.9589 100.665 31.9589C97.5668 31.9589 95.0828 30.9582 93.2109 28.9547C91.339 26.9523 90.4031 24.3831 90.4031 21.2462H90.4021ZM105.169 15.1778C103.944 14.1053 102.415 13.5686 100.583 13.5686C98.7517 13.5686 97.2027 14.1083 95.9371 15.1875C94.6715 16.2667 93.9576 17.6491 93.7961 19.3329H107.169C107.061 17.6356 106.394 16.2502 105.169 15.1778Z" fill="white"/>
<path d="M69.6422 16.2298V12.6502C69.6422 9.98414 67.3369 7.81409 64.5041 7.81409H60.7093C57.8765 7.81409 55.5712 9.98317 55.5712 12.6502V16.2298C53.6704 18.085 52.4866 20.6823 52.4866 23.5606C52.4866 29.195 57.0174 33.7637 62.6072 33.7637C68.1969 33.7637 72.7278 29.1959 72.7278 23.5606C72.7278 20.6823 71.5439 18.085 69.6432 16.2298H69.6422ZM58.7163 12.6502C58.7163 11.7473 59.6292 10.9849 60.7103 10.9849H64.505C65.5851 10.9849 66.499 11.7473 66.499 12.6502V14.1402C65.3007 13.6364 63.9871 13.3574 62.6081 13.3574C61.2292 13.3574 59.9156 13.6364 58.7173 14.1402V12.6502H58.7163ZM62.6072 30.5919C58.7605 30.5919 55.6317 27.4376 55.6317 23.5596C55.6317 21.1493 56.8415 19.018 58.6808 17.7508H58.7163V17.7256C59.8281 16.969 61.1677 16.5273 62.6072 16.5273C64.0467 16.5273 65.3852 16.969 66.498 17.7256V17.7508H66.5336C68.3728 19.018 69.5826 21.1493 69.5826 23.5596C69.5826 27.4376 66.4538 30.5919 62.6072 30.5919Z" fill="white"/>
<path d="M64.7251 22.6828C64.7251 21.5038 63.7766 20.5477 62.6072 20.5477C61.4377 20.5477 60.4893 21.5038 60.4893 22.6828C60.4893 23.5247 60.9765 24.2445 61.6779 24.5933V26.5357C61.6779 26.9697 62.0306 27.3252 62.4611 27.3252H62.7542C63.1847 27.3252 63.5374 26.9697 63.5374 26.5357V24.5933C64.2388 24.2455 64.726 23.5247 64.726 22.6838L64.7251 22.6828Z" fill="white"/>
<path d="M20.1827 31.9551C27.1514 32.0074 32.6067 27.5898 30.8616 20.4828C29.7162 15.9654 24.8673 14.7603 20.8726 13.8748C20.7919 13.8613 20.6776 13.8341 20.5286 13.7934C18.2724 13.2412 17.9783 13.2674 15.9738 12.5108C15.1186 12.1853 14.4987 11.8481 14.1153 11.5033C12.0061 9.60349 12.0291 6.14108 14.4891 4.49707C15.7403 3.63099 17.4363 3.19698 19.5696 3.18729L31.1749 3.18535V0.0552368L19.0373 0.0639558C18.8028 0.0639558 18.5674 0.0697685 18.3339 0.0881752C16.8636 0.202491 15.5125 0.501842 14.2883 0.99398C9.36158 2.91506 7.59153 8.21717 10.2581 12.7239C10.5877 13.2461 11.0692 13.7363 11.7024 14.1897C13.1169 15.1894 13.7386 15.5314 15.4693 16.0846C17.3825 16.6872 17.8053 16.7375 19.8022 17.1938C21.7067 17.624 22.7205 17.8032 24.3974 18.5288C25.784 19.144 26.5451 19.7718 27.1649 21.0941C27.4407 21.6986 27.579 22.3884 27.579 23.1615C27.5838 27.0938 23.8419 28.7426 20.1827 28.76C20.1827 28.76 12.599 28.7571 9.0166 28.7552V31.9744C12.6086 31.9686 20.1827 31.9551 20.1827 31.9551Z" fill="white"/>
<path d="M110.019 0L34.4728 0.0842834V3.2173L110.019 3.17274C115.441 3.17274 119.852 7.73761 119.852 13.3478V30.1396C119.852 36.0171 115.23 40.8 109.549 40.8L7.99319 40.7748C5.35158 40.7748 3.20292 38.6086 3.20292 35.9454C3.17697 34.2772 4.27148 32.7921 5.76574 32.2244V28.885C4.38391 29.1495 3.1395 29.8082 2.1209 30.8255C-2.71838 35.6752 1.35408 44.1122 7.99415 43.9989L109.55 43.9737C116.966 43.9737 123 37.7677 123 30.1405V13.3488C123 5.98897 117.177 0 110.02 0H110.019Z" fill="white"/>
</svg>
