<svg width="21" height="23" viewBox="0 0 21 23" fill="none" xmlns="http://www.w3.org/2000/svg">
<circle cx="10.5" cy="10.5" r="10" stroke="#2954B1" stroke-opacity="0.6"/>
<path d="M12.25 8.2C12.25 7.74 12.075 7.35 11.725 7.03C11.385 6.71 10.95 6.55 10.42 6.55C9.56 6.55 8.86 6.92 8.32 7.66L7.6 6.865C7.88 6.415 8.275 6.05 8.785 5.77C9.305 5.49 9.875 5.35 10.495 5.35C11.435 5.35 12.175 5.6 12.715 6.1C13.265 6.6 13.54 7.215 13.54 7.945C13.54 8.405 13.46 8.82 13.3 9.19C13.14 9.56 12.94 9.85 12.7 10.06C12.46 10.27 12.205 10.485 11.935 10.705C11.675 10.925 11.435 11.125 11.215 11.305C11.005 11.485 10.84 11.715 10.72 11.995C10.61 12.275 10.59 12.595 10.66 12.955L9.58 12.97C9.48 12.45 9.5 12.005 9.64 11.635C9.79 11.265 10.005 10.965 10.285 10.735C10.565 10.505 10.85 10.285 11.14 10.075C11.44 9.865 11.7 9.605 11.92 9.295C12.14 8.975 12.25 8.61 12.25 8.2ZM9.28 15.19C9.28 14.98 9.36 14.795 9.52 14.635C9.68 14.475 9.89 14.395 10.15 14.395C10.37 14.395 10.555 14.48 10.705 14.65C10.865 14.81 10.945 14.99 10.945 15.19C10.945 15.42 10.87 15.62 10.72 15.79C10.57 15.96 10.38 16.045 10.15 16.045C9.89 16.045 9.68 15.96 9.52 15.79C9.36 15.62 9.28 15.42 9.28 15.19Z" fill="#2954B1" fill-opacity="0.6"/>
</svg>
