<svg width="19" height="26" viewBox="0 0 19 26" fill="none" xmlns="http://www.w3.org/2000/svg">
<path d="M12.8457 25.5802C11.925 25.3335 10.721 24.654 9.07432 23.0532C7.07326 21.1016 5.57846 19.3943 3.86222 16.4307C2.2087 13.5688 1.50128 11.8132 0.713173 8.60231C-0.17764 4.97672 0.562387 3.39968 1.08317 2.78046C1.70419 2.03998 2.4218 1.68985 3.30866 1.38912C3.81096 1.22366 4.32743 1.10484 4.85154 1.03417C4.90414 1.02653 4.95318 1.01894 4.997 1.01198C5.25865 0.969359 5.65497 0.905198 6.05753 1.19505C6.32648 1.38742 6.53188 1.68864 6.83918 2.2133C7.46969 3.28811 8.13641 5.48423 8.32074 6.52441C8.44386 7.22518 8.52562 7.68788 8.40249 8.14928C8.25779 8.68931 7.87453 9.03298 7.42442 9.39412C7.34001 9.46199 7.25709 9.52621 7.17668 9.58858C6.69138 9.96405 6.5761 10.0792 6.56277 10.3365C6.53689 10.8538 6.93111 12.5199 7.87548 14.1515C8.81986 15.783 10.0369 16.8967 10.4999 17.133C10.7391 17.2552 10.9002 17.2104 11.4865 16.9692C11.5706 16.9346 11.6571 16.8986 11.7469 16.8636C12.3499 16.6243 12.8179 16.4661 13.3452 16.6074L13.348 16.6081C13.8069 16.7311 14.1465 17.0354 14.7094 17.5381C15.4436 18.1938 17.0728 19.8693 17.6933 20.9551C17.9952 21.4829 18.1545 21.8107 18.1873 22.1394C18.2366 22.6344 17.9823 22.9439 17.8149 23.1518C17.787 23.1862 17.7561 23.224 17.7231 23.2662C17.3985 23.6835 17.0362 24.07 16.6407 24.4209C15.9384 25.0365 15.2749 25.481 14.3211 25.6485C13.8305 25.7378 13.326 25.7144 12.8457 25.5802Z" fill="white"/>
</svg>
